<?xml version="1.0" encoding="UTF-8"?>
<!-- Generated by Pixelmator Pro 3.7.1 -->
<svg width="1024" height="1024" viewBox="0 0 1024 1024" xmlns="http://www.w3.org/2000/svg">
    <path id="Path" fill="#f1545b" stroke="none" d="M -0 409.771973 C 9.873835 407.538879 25.151764 406.233093 38.933464 406.233093 C 76.181305 406.233093 98.548958 418.521301 98.548958 449.790771 C 98.548958 468.961243 90.341805 481.621643 77.500763 488.510132 L 108.586929 538.76709 C 106.162666 540.445068 100.94796 541.372314 93.68148 541.372314 C 85.474327 541.372314 80.082863 540.445068 76.168678 538.76709 L 50.284588 495.209412 L 47.348953 495.209412 C 41.035759 495.209412 32.632896 494.647949 28.163157 493.903625 L 28.163157 538.950012 C 25.555807 540.438721 20.896669 541.372314 14.192059 541.372314 C 7.67053 541.372314 2.828311 540.445068 0.037879 538.950012 L -0 409.771973 Z M 27.942194 431.364685 L 27.942194 470.267029 C 33.238144 471.141968 38.597286 471.578491 43.96508 471.572815 C 60.171047 471.572815 70.076447 465.819763 70.076447 451.311035 C 70.076447 436.417542 59.647057 430.279724 41.035759 430.279724 C 36.647648 430.252014 32.265785 430.615112 27.942194 431.364685 L 27.942194 431.364685 Z"/>
    <path id="path1" fill="#f1545b" stroke="none" d="M 144.572128 503.037781 C 145.689575 516.070435 155.001526 522.397461 173.448669 522.397461 C 185.374313 522.397461 195.803696 519.792236 202.489365 516.814758 C 203.044922 523.88623 200.065094 533.007751 195.78476 537.846069 C 189.635712 541.38501 179.206299 544.362427 166.352646 544.362427 C 133.751312 544.362427 116.427917 525.564148 116.427917 495.404968 C 116.427917 464.31842 135.058151 444.214417 164.30719 444.214417 C 191.50441 444.214417 203.985596 460.968811 203.985596 485.539001 C 203.966644 491.481262 203.02536 497.38446 201.195175 503.037781 L 144.572128 503.037781 Z M 178.663376 483.482544 C 180.15329 473.805847 176.611588 464.312134 163.202377 464.312134 C 151.649231 464.312134 144.572128 471.755737 143.827179 483.482544 L 178.663376 483.482544 Z"/>
    <path id="path2" fill="#f1545b" stroke="none" d="M 261.744995 520.523926 C 263.040466 512.413574 264.845398 504.392761 267.149109 496.50885 L 281.303284 448.484985 C 283.355072 447.740662 286.517975 446.807007 292.483948 446.807007 C 300.122925 446.807007 305.337616 448.295776 308.689911 450.52887 L 279.257813 538.76709 C 269.383972 541.561646 255.595947 542.488892 242.369812 542.488892 L 211.820267 450.535156 C 215.172562 448.302063 220.387268 446.813354 228.234573 446.813354 C 233.821747 446.813354 237.704361 447.740662 239.415253 448.491333 L 254.503769 496.515198 C 256.952667 504.385193 258.882599 512.407898 260.280334 520.530273 L 261.744995 520.523926 Z"/>
    <path id="path3" fill="#f1545b" stroke="none" d="M 343.343018 503.037781 C 344.46048 516.070435 353.77243 522.397461 372.219604 522.397461 C 384.145203 522.397461 394.574585 519.792236 401.260284 516.814758 C 401.815826 523.88623 398.835999 533.007751 394.555634 537.846069 C 388.406586 541.38501 377.977234 544.362427 365.123535 544.362427 C 332.522247 544.362427 315.198822 525.564148 315.198822 495.404968 C 315.198822 464.31842 333.829071 444.214417 363.078064 444.214417 C 390.27533 444.214417 402.7565 460.968811 402.7565 485.539001 C 402.741333 491.480042 401.804474 497.383179 399.978699 503.037781 L 343.343018 503.037781 Z M 377.434265 483.482544 C 378.924194 473.805847 375.382477 464.312134 361.973267 464.312134 C 350.420135 464.312134 343.343018 471.755737 342.598053 483.482544 L 377.434265 483.482544 Z"/>
    <path id="path4" fill="#f1545b" stroke="none" d="M 450.648376 539.139282 C 448.224121 540.445068 443.754395 541.372314 437.232849 541.372314 C 430.711304 541.372314 426.241547 540.445068 423.634247 539.139282 L 423.634247 450.352234 C 428.684814 447.557678 436.677277 446.06897 445.61676 446.06897 L 447.106689 461.334656 L 448.596588 461.334656 C 453.066345 451.657959 462.567688 444.208069 479.53125 444.208069 C 493.691742 444.208069 510.465912 449.254578 510.465912 479.950012 L 510.465912 539.14563 C 508.041626 540.451355 503.571899 541.378662 497.050354 541.378662 C 490.528809 541.378662 486.059082 540.451355 483.451752 539.14563 L 483.451752 484.78833 C 483.451752 475.111694 480.099426 468.967529 469.108154 468.967529 C 459.423706 468.967529 454.019623 473.805847 450.667297 479.57782 L 450.648376 539.139282 Z"/>
    <path id="path5" fill="#f1545b" stroke="none" d="M 594.841736 529.462585 C 590.744446 537.839783 581.988037 544.356079 565.592712 544.356079 C 551.072388 544.356079 534.658081 539.30957 534.658081 508.399719 L 534.658081 451.626465 C 540.971252 448.087585 549.935974 446.043762 561.67218 446.043762 L 561.67218 503.75061 C 561.67218 513.799438 564.828796 519.388489 575.643311 519.388489 C 584.399719 519.388489 590.163635 515.666687 593.528564 511.383484 L 593.528564 449.418579 C 596.135925 448.112793 600.605652 447.185547 607.127197 447.185547 C 613.648743 447.185547 618.118469 448.119141 620.542725 449.418579 L 620.542725 538.211975 C 615.7005 541.00647 608.061523 542.495239 599.494568 542.495239 L 596.337952 529.462585 L 594.841736 529.462585 Z"/>
    <path id="path6" fill="#f1545b" stroke="none" d="M 668.983887 503.037781 C 670.101318 516.070435 679.41333 522.397461 697.860413 522.397461 C 709.786072 522.397461 720.215454 519.792236 726.901123 516.814758 C 727.456665 523.88623 724.476868 533.007751 720.196533 537.846069 C 714.047485 541.38501 703.618042 544.362427 690.764404 544.362427 C 658.163086 544.362427 640.839661 525.564148 640.839661 495.404968 C 640.839661 464.31842 659.469849 444.214417 688.718933 444.214417 C 715.916138 444.214417 728.397339 460.968811 728.397339 485.539001 C 728.378418 491.481262 727.431396 497.38446 725.600586 503.037781 L 668.983887 503.037781 Z M 703.075134 483.482544 C 704.565063 473.805847 701.023376 464.312134 687.614136 464.312134 C 676.060974 464.312134 668.983887 471.755737 668.238892 483.482544 L 703.075134 483.482544 Z"/>
    <path id="path7" fill="#f1545b" stroke="none" d="M 818.581299 428.75946 C 792.312134 428.75946 774.243774 442.164246 774.243774 474.550232 C 774.243774 506.936218 792.129028 519.785889 817.274536 519.785889 C 828.013245 519.682434 838.632019 517.542114 848.56897 513.477783 C 848.941406 520.366211 845.589172 532.276001 841.119385 538.237183 C 833.107971 542.148254 821.548462 544.936462 808.518127 544.936462 C 768.650269 544.936462 745.177795 519.249695 745.177795 476.43634 C 745.184082 430.248169 772.564453 404 812.804688 404 C 823.423523 404 834.225403 405.892456 841.119385 409.954895 C 845.406067 416.098999 847.268494 427.081482 846.334106 435.26947 C 837.394653 430.992554 829.200073 428.75946 818.581299 428.75946 Z"/>
    <path id="path8" fill="#f1545b" stroke="none" d="M 914.712341 530.951294 C 910.615051 539.151855 901.858643 544.356079 889.005005 544.356079 C 872.590698 544.356079 858.455444 536.155518 858.455444 514.575378 C 858.455444 491.866089 874.869751 483.116699 896.460876 483.116699 C 902.199524 483.046021 907.919312 483.862915 913.411743 485.539001 L 913.411743 482.933777 C 913.411743 471.579102 907.824585 467.485107 895.526489 467.485107 C 885.084473 467.478149 874.812866 470.163574 865.715637 475.281982 C 863.480713 468.021301 864.408752 456.483704 868.695435 450.3396 C 875.406372 446.617798 886.953247 444.195496 900.741211 444.195496 C 927.565979 444.195496 940.419617 453.657654 940.419617 481.236877 L 940.419617 513.439941 C 940.419617 519.211853 943.026978 520.511353 946.732788 520.511353 C 949.561096 520.561768 952.345276 519.785278 954.744324 518.278259 C 955.489197 525.721863 953.254333 534.843384 949.902039 540.053955 C 945.987915 542.65918 940.773193 544.337158 934.44104 544.337158 C 923.63916 544.337158 918.026733 539.681763 916.183289 530.932373 L 914.712341 530.951294 Z M 913.967346 503.403687 C 910.046875 501.878967 905.87384 501.121399 901.66925 501.170593 C 890.867371 501.170593 885.463318 505.636719 885.463318 512.714478 C 885.463318 519.975159 890.867371 522.580444 898.316956 522.580444 C 904.276611 522.580444 910.242615 520.687988 913.967346 516.064087 L 913.967346 503.403687 Z"/>
    <path id="path9" fill="#f1545b" stroke="none" d="M 997.093201 470.866272 L 1021.960876 470.866272 C 1023.084595 468.620605 1023.646423 463.927307 1023.646423 459.252991 C 1023.646423 454.578674 1023.084595 449.891724 1021.960876 447.639709 L 997.093201 447.639709 L 997.093201 419.909119 C 986.619629 420.098389 976.714172 422.533325 969.978027 427.396912 L 969.978027 447.620789 L 959.32135 447.620789 C 956.890747 453.613525 955.583923 462.760315 955.583923 470.841064 L 969.984253 470.841064 L 969.618164 536.634949 C 969.618164 543.882996 968.35553 553.149658 964.207764 556.057739 C 944.46637 570.017578 904.314514 563.261597 867.470703 559.432556 C 814.540833 553.931885 768.827087 546.702759 761.2323 575.966187 C 757.217102 591.427429 762.431824 601.30603 767.501221 606.876099 C 777.697083 618.060425 795.689636 620.608887 809.970093 620.608887 C 816.68103 620.601318 823.38562 620.076538 830.020813 619.038208 C 833.398376 618.48999 836.416077 616.624634 838.417358 613.851624 C 840.41864 611.079224 841.23938 607.626099 840.690125 604.251892 C 839.553711 597.224609 832.893372 592.266418 825.898254 593.565918 C 811.220093 596.30365 790.500244 602.397339 782.551941 593.673096 C 779.862488 590.727234 780.329712 583.491821 782.551941 581.252441 C 788.46106 572.421021 826.498047 575.795898 864.793823 580.96228 C 907.092224 585.37793 950.886841 591.566223 975.754517 579.13916 C 985.489502 574.275635 997.093201 562.952515 997.093201 536.634949 L 997.093201 470.866272 Z"/>
</svg>
