<?xml version="1.0" encoding="UTF-8"?>
<!-- Generated by Pixelmator Pro 3.7 -->
<svg width="1024" height="1024" viewBox="0 0 1024 1024" xmlns="http://www.w3.org/2000/svg">
    <g id="Group">
        <path id="Path" fill="#ffa000" stroke="none" d="M 628.869385 370.153503 L 526.63678 465.264526 L 431.770477 273.953796 L 480.858124 163.935608 C 493.283356 141.880249 513.55603 141.838074 525.981201 163.935608 L 628.869385 370.153503 Z"/>
        <path id="path1" fill="#f57f17" stroke="none" d="M 526.63678 465.261658 L 144.599854 820.598145 L 431.770477 273.950867 Z"/>
        <path id="path2" fill="#ffca28" stroke="none" d="M 740.685303 224.776428 C 758.948975 207.224915 777.831604 213.211365 782.643005 238.080017 L 882.084412 815.838257 L 552.441101 1013.36615 C 540.90509 1019.735229 510.356812 1022.497742 510.356812 1022.497742 C 510.356812 1022.497742 482.473145 1019.164124 471.845856 1013.2677 L 144.588593 820.578491 L 740.685303 224.776428 Z"/>
        <path id="path3" fill="#ffa000" stroke="none" d="M 431.770477 273.950867 L 144.599854 820.598145 L 272.510101 21.658752 C 277.220215 -3.229614 291.389923 -5.626343 304.03186 16.341797 L 431.770477 273.950867 Z"/>
    </g>
</svg>
